<mxfile host="Electron" agent="Mozilla/5.0 (Windows NT 10.0; Win64; x64) AppleWebKit/537.36 (KHTML, like Gecko) draw.io/28.0.6 Chrome/138.0.7204.100 Electron/37.2.3 Safari/537.36" version="28.0.6">
  <diagram name="Page-1" id="0rfWOfyjAOf733A-oJOd">
    <mxGraphModel dx="1426" dy="841" grid="1" gridSize="10" guides="1" tooltips="1" connect="1" arrows="1" fold="1" page="1" pageScale="1" pageWidth="827" pageHeight="1169" math="0" shadow="0">
      <root>
        <mxCell id="0" />
        <mxCell id="1" parent="0" />
        <mxCell id="B6tf1ZhUQxjnIPDWgsCj-48" value="" style="rounded=0;whiteSpace=wrap;html=1;strokeColor=none;" parent="1" vertex="1">
          <mxGeometry x="90" y="30" width="920" height="850" as="geometry" />
        </mxCell>
        <mxCell id="B6tf1ZhUQxjnIPDWgsCj-47" value="Client 2" style="rounded=0;whiteSpace=wrap;html=1;fillColor=#f5f5f5;fontColor=#333333;strokeColor=none;verticalAlign=top;fontSize=18;" parent="1" vertex="1">
          <mxGeometry x="660" y="40" width="340" height="830" as="geometry" />
        </mxCell>
        <mxCell id="B6tf1ZhUQxjnIPDWgsCj-46" value="Host" style="rounded=0;whiteSpace=wrap;html=1;fillColor=#f5f5f5;fontColor=#333333;strokeColor=none;verticalAlign=top;fontSize=18;" parent="1" vertex="1">
          <mxGeometry x="460" y="40" width="180" height="830" as="geometry" />
        </mxCell>
        <mxCell id="B6tf1ZhUQxjnIPDWgsCj-45" value="Client 1" style="rounded=0;whiteSpace=wrap;html=1;fillColor=#f5f5f5;fontColor=#333333;strokeColor=none;verticalAlign=top;fontSize=18;" parent="1" vertex="1">
          <mxGeometry x="100" y="40" width="340" height="830" as="geometry" />
        </mxCell>
        <mxCell id="uIkM0Dpdz_mQOi9VMkWr-1" value="Session Manager" style="shape=umlLifeline;perimeter=lifelinePerimeter;whiteSpace=wrap;html=1;container=1;dropTarget=0;collapsible=0;recursiveResize=0;outlineConnect=0;portConstraint=eastwest;newEdgeStyle={&quot;curved&quot;:0,&quot;rounded&quot;:0};fontSize=18;size=50;fillColor=#fff2cc;strokeColor=#d6b656;" parent="1" vertex="1">
          <mxGeometry x="120" y="80" width="140" height="780" as="geometry" />
        </mxCell>
        <mxCell id="uIkM0Dpdz_mQOi9VMkWr-22" value="" style="endArrow=classic;html=1;rounded=0;snapToPoint=0;" parent="1" edge="1">
          <mxGeometry relative="1" as="geometry">
            <mxPoint x="350" y="360" as="sourcePoint" />
            <mxPoint x="190" y="361" as="targetPoint" />
          </mxGeometry>
        </mxCell>
        <mxCell id="uIkM0Dpdz_mQOi9VMkWr-23" value="Model Selected" style="edgeLabel;resizable=0;html=1;;align=center;verticalAlign=middle;fontSize=18;labelBackgroundColor=none;" parent="uIkM0Dpdz_mQOi9VMkWr-22" connectable="0" vertex="1">
          <mxGeometry relative="1" as="geometry">
            <mxPoint x="-10" y="-10" as="offset" />
          </mxGeometry>
        </mxCell>
        <mxCell id="uIkM0Dpdz_mQOi9VMkWr-31" value="Session Manager" style="shape=umlLifeline;perimeter=lifelinePerimeter;whiteSpace=wrap;html=1;container=1;dropTarget=0;collapsible=0;recursiveResize=0;outlineConnect=0;portConstraint=eastwest;newEdgeStyle={&quot;curved&quot;:0,&quot;rounded&quot;:0};fontSize=18;size=50;fillColor=#fff2cc;strokeColor=#d6b656;" parent="1" vertex="1">
          <mxGeometry x="480" y="80" width="140" height="780" as="geometry" />
        </mxCell>
        <mxCell id="uIkM0Dpdz_mQOi9VMkWr-32" value="Tracking Manager" style="shape=umlLifeline;perimeter=lifelinePerimeter;whiteSpace=wrap;html=1;container=1;dropTarget=0;collapsible=0;recursiveResize=0;outlineConnect=0;portConstraint=eastwest;newEdgeStyle={&quot;curved&quot;:0,&quot;rounded&quot;:0};fontSize=18;size=50;fillColor=#fff2cc;strokeColor=#d6b656;" parent="1" vertex="1">
          <mxGeometry x="280" y="80" width="140" height="780" as="geometry" />
        </mxCell>
        <mxCell id="uIkM0Dpdz_mQOi9VMkWr-46" value="" style="endArrow=classic;html=1;rounded=0;snapToPoint=0;" parent="1" target="uIkM0Dpdz_mQOi9VMkWr-1" edge="1">
          <mxGeometry relative="1" as="geometry">
            <mxPoint x="189.5" y="160" as="sourcePoint" />
            <mxPoint x="476" y="160" as="targetPoint" />
            <Array as="points">
              <mxPoint x="270" y="160" />
              <mxPoint x="270" y="180" />
              <mxPoint x="270" y="200" />
            </Array>
          </mxGeometry>
        </mxCell>
        <mxCell id="uIkM0Dpdz_mQOi9VMkWr-47" value="Select a Model" style="edgeLabel;resizable=0;html=1;;align=center;verticalAlign=middle;fontSize=18;labelBackgroundColor=none;" parent="uIkM0Dpdz_mQOi9VMkWr-46" connectable="0" vertex="1">
          <mxGeometry relative="1" as="geometry">
            <mxPoint x="60" as="offset" />
          </mxGeometry>
        </mxCell>
        <mxCell id="B6tf1ZhUQxjnIPDWgsCj-1" value="Tracking Manager" style="shape=umlLifeline;perimeter=lifelinePerimeter;whiteSpace=wrap;html=1;container=1;dropTarget=0;collapsible=0;recursiveResize=0;outlineConnect=0;portConstraint=eastwest;newEdgeStyle={&quot;curved&quot;:0,&quot;rounded&quot;:0};fontSize=18;size=50;fillColor=#fff2cc;strokeColor=#d6b656;" parent="1" vertex="1">
          <mxGeometry x="840" y="80" width="140" height="780" as="geometry" />
        </mxCell>
        <mxCell id="B6tf1ZhUQxjnIPDWgsCj-2" value="Session Manager" style="shape=umlLifeline;perimeter=lifelinePerimeter;whiteSpace=wrap;html=1;container=1;dropTarget=0;collapsible=0;recursiveResize=0;outlineConnect=0;portConstraint=eastwest;newEdgeStyle={&quot;curved&quot;:0,&quot;rounded&quot;:0};fontSize=18;size=50;fillColor=#fff2cc;strokeColor=#d6b656;" parent="1" vertex="1">
          <mxGeometry x="680" y="80" width="140" height="780" as="geometry" />
        </mxCell>
        <mxCell id="B6tf1ZhUQxjnIPDWgsCj-7" value="" style="endArrow=classic;html=1;rounded=0;snapToPoint=0;" parent="1" edge="1">
          <mxGeometry relative="1" as="geometry">
            <mxPoint x="190" y="241" as="sourcePoint" />
            <mxPoint x="350" y="240" as="targetPoint" />
          </mxGeometry>
        </mxCell>
        <mxCell id="B6tf1ZhUQxjnIPDWgsCj-8" value="Add Model to Workspace" style="edgeLabel;resizable=0;html=1;;align=center;verticalAlign=middle;fontSize=18;labelBackgroundColor=none;" parent="B6tf1ZhUQxjnIPDWgsCj-7" connectable="0" vertex="1">
          <mxGeometry relative="1" as="geometry">
            <mxPoint x="-30" y="-10" as="offset" />
          </mxGeometry>
        </mxCell>
        <mxCell id="B6tf1ZhUQxjnIPDWgsCj-9" value="" style="endArrow=classic;html=1;rounded=0;snapToPoint=0;" parent="1" target="uIkM0Dpdz_mQOi9VMkWr-31" edge="1">
          <mxGeometry relative="1" as="geometry">
            <mxPoint x="190" y="281" as="sourcePoint" />
            <mxPoint x="350" y="280" as="targetPoint" />
          </mxGeometry>
        </mxCell>
        <mxCell id="B6tf1ZhUQxjnIPDWgsCj-10" value="Spawn New Model" style="edgeLabel;resizable=0;html=1;;align=center;verticalAlign=middle;fontSize=18;labelBackgroundColor=none;" parent="B6tf1ZhUQxjnIPDWgsCj-9" connectable="0" vertex="1">
          <mxGeometry relative="1" as="geometry">
            <mxPoint x="80" y="-10" as="offset" />
          </mxGeometry>
        </mxCell>
        <mxCell id="B6tf1ZhUQxjnIPDWgsCj-11" value="" style="endArrow=classic;html=1;rounded=0;snapToPoint=0;" parent="1" target="B6tf1ZhUQxjnIPDWgsCj-2" edge="1">
          <mxGeometry relative="1" as="geometry">
            <mxPoint x="550" y="321" as="sourcePoint" />
            <mxPoint x="690" y="320" as="targetPoint" />
          </mxGeometry>
        </mxCell>
        <mxCell id="B6tf1ZhUQxjnIPDWgsCj-12" value="Update all Clients (Model)" style="edgeLabel;resizable=0;html=1;;align=center;verticalAlign=middle;fontSize=18;labelBackgroundColor=none;" parent="B6tf1ZhUQxjnIPDWgsCj-11" connectable="0" vertex="1">
          <mxGeometry relative="1" as="geometry">
            <mxPoint x="-20" y="-10" as="offset" />
          </mxGeometry>
        </mxCell>
        <mxCell id="B6tf1ZhUQxjnIPDWgsCj-13" value="" style="endArrow=classic;html=1;rounded=0;snapToPoint=0;" parent="1" target="uIkM0Dpdz_mQOi9VMkWr-31" edge="1">
          <mxGeometry relative="1" as="geometry">
            <mxPoint x="190" y="400" as="sourcePoint" />
            <mxPoint x="530" y="400" as="targetPoint" />
          </mxGeometry>
        </mxCell>
        <mxCell id="B6tf1ZhUQxjnIPDWgsCj-14" value="Lock Model" style="edgeLabel;resizable=0;html=1;;align=center;verticalAlign=middle;fontSize=18;labelBackgroundColor=none;" parent="B6tf1ZhUQxjnIPDWgsCj-13" connectable="0" vertex="1">
          <mxGeometry relative="1" as="geometry">
            <mxPoint x="110" y="-10" as="offset" />
          </mxGeometry>
        </mxCell>
        <mxCell id="B6tf1ZhUQxjnIPDWgsCj-18" value="" style="endArrow=classic;html=1;rounded=0;snapToPoint=0;" parent="1" target="B6tf1ZhUQxjnIPDWgsCj-2" edge="1">
          <mxGeometry relative="1" as="geometry">
            <mxPoint x="550" y="440" as="sourcePoint" />
            <mxPoint x="730" y="440" as="targetPoint" />
          </mxGeometry>
        </mxCell>
        <mxCell id="B6tf1ZhUQxjnIPDWgsCj-19" value="Lock Model" style="edgeLabel;resizable=0;html=1;;align=center;verticalAlign=middle;fontSize=18;labelBackgroundColor=none;" parent="B6tf1ZhUQxjnIPDWgsCj-18" connectable="0" vertex="1">
          <mxGeometry relative="1" as="geometry">
            <mxPoint x="40" y="-10" as="offset" />
          </mxGeometry>
        </mxCell>
        <mxCell id="B6tf1ZhUQxjnIPDWgsCj-20" value="" style="endArrow=classic;html=1;rounded=0;snapToPoint=0;" parent="1" edge="1">
          <mxGeometry relative="1" as="geometry">
            <mxPoint x="350" y="480" as="sourcePoint" />
            <mxPoint x="190" y="481" as="targetPoint" />
          </mxGeometry>
        </mxCell>
        <mxCell id="B6tf1ZhUQxjnIPDWgsCj-21" value="Model Transform" style="edgeLabel;resizable=0;html=1;;align=center;verticalAlign=middle;fontSize=18;labelBackgroundColor=none;" parent="B6tf1ZhUQxjnIPDWgsCj-20" connectable="0" vertex="1">
          <mxGeometry relative="1" as="geometry">
            <mxPoint y="-10" as="offset" />
          </mxGeometry>
        </mxCell>
        <mxCell id="B6tf1ZhUQxjnIPDWgsCj-22" value="" style="endArrow=classic;html=1;rounded=0;snapToPoint=0;" parent="1" target="uIkM0Dpdz_mQOi9VMkWr-31" edge="1">
          <mxGeometry relative="1" as="geometry">
            <mxPoint x="190" y="520" as="sourcePoint" />
            <mxPoint x="530" y="520" as="targetPoint" />
          </mxGeometry>
        </mxCell>
        <mxCell id="B6tf1ZhUQxjnIPDWgsCj-23" value="Model Update" style="edgeLabel;resizable=0;html=1;;align=center;verticalAlign=middle;fontSize=18;labelBackgroundColor=none;" parent="B6tf1ZhUQxjnIPDWgsCj-22" connectable="0" vertex="1">
          <mxGeometry relative="1" as="geometry">
            <mxPoint x="110" y="-10" as="offset" />
          </mxGeometry>
        </mxCell>
        <mxCell id="B6tf1ZhUQxjnIPDWgsCj-24" value="" style="endArrow=classic;html=1;rounded=0;snapToPoint=0;" parent="1" target="B6tf1ZhUQxjnIPDWgsCj-2" edge="1">
          <mxGeometry relative="1" as="geometry">
            <mxPoint x="550" y="560" as="sourcePoint" />
            <mxPoint x="730" y="560" as="targetPoint" />
          </mxGeometry>
        </mxCell>
        <mxCell id="B6tf1ZhUQxjnIPDWgsCj-25" value="Update all Clients (Model)" style="edgeLabel;resizable=0;html=1;;align=center;verticalAlign=middle;fontSize=18;labelBackgroundColor=none;" parent="B6tf1ZhUQxjnIPDWgsCj-24" connectable="0" vertex="1">
          <mxGeometry relative="1" as="geometry">
            <mxPoint x="-20" y="-10" as="offset" />
          </mxGeometry>
        </mxCell>
        <mxCell id="B6tf1ZhUQxjnIPDWgsCj-26" value="" style="endArrow=classic;html=1;rounded=0;snapToPoint=0;" parent="1" target="uIkM0Dpdz_mQOi9VMkWr-31" edge="1">
          <mxGeometry relative="1" as="geometry">
            <mxPoint x="190" y="590" as="sourcePoint" />
            <mxPoint x="530" y="590" as="targetPoint" />
          </mxGeometry>
        </mxCell>
        <mxCell id="B6tf1ZhUQxjnIPDWgsCj-27" value="Unlock Model" style="edgeLabel;resizable=0;html=1;;align=center;verticalAlign=middle;fontSize=18;labelBackgroundColor=none;" parent="B6tf1ZhUQxjnIPDWgsCj-26" connectable="0" vertex="1">
          <mxGeometry relative="1" as="geometry">
            <mxPoint x="110" y="-10" as="offset" />
          </mxGeometry>
        </mxCell>
        <mxCell id="B6tf1ZhUQxjnIPDWgsCj-28" value="" style="endArrow=classic;html=1;rounded=0;snapToPoint=0;" parent="1" edge="1">
          <mxGeometry relative="1" as="geometry">
            <mxPoint x="910" y="620" as="sourcePoint" />
            <mxPoint x="750" y="621" as="targetPoint" />
          </mxGeometry>
        </mxCell>
        <mxCell id="B6tf1ZhUQxjnIPDWgsCj-29" value="Model Selected" style="edgeLabel;resizable=0;html=1;;align=center;verticalAlign=middle;fontSize=18;labelBackgroundColor=none;" parent="B6tf1ZhUQxjnIPDWgsCj-28" connectable="0" vertex="1">
          <mxGeometry relative="1" as="geometry">
            <mxPoint x="-10" y="-10" as="offset" />
          </mxGeometry>
        </mxCell>
        <mxCell id="B6tf1ZhUQxjnIPDWgsCj-30" value="" style="endArrow=classic;html=1;rounded=0;snapToPoint=0;" parent="1" target="uIkM0Dpdz_mQOi9VMkWr-31" edge="1">
          <mxGeometry relative="1" as="geometry">
            <mxPoint x="750.5" y="660" as="sourcePoint" />
            <mxPoint x="590" y="660" as="targetPoint" />
          </mxGeometry>
        </mxCell>
        <mxCell id="B6tf1ZhUQxjnIPDWgsCj-31" value="Ask Ownership" style="edgeLabel;resizable=0;html=1;;align=center;verticalAlign=middle;fontSize=18;labelBackgroundColor=none;" parent="B6tf1ZhUQxjnIPDWgsCj-30" connectable="0" vertex="1">
          <mxGeometry relative="1" as="geometry">
            <mxPoint x="-29" y="-10" as="offset" />
          </mxGeometry>
        </mxCell>
        <mxCell id="B6tf1ZhUQxjnIPDWgsCj-32" value="" style="endArrow=classic;html=1;rounded=0;snapToPoint=0;" parent="1" target="uIkM0Dpdz_mQOi9VMkWr-31" edge="1">
          <mxGeometry relative="1" as="geometry">
            <mxPoint x="750" y="710" as="sourcePoint" />
            <mxPoint x="570" y="710" as="targetPoint" />
          </mxGeometry>
        </mxCell>
        <mxCell id="B6tf1ZhUQxjnIPDWgsCj-33" value="Lock Model" style="edgeLabel;resizable=0;html=1;;align=center;verticalAlign=middle;fontSize=18;labelBackgroundColor=none;" parent="B6tf1ZhUQxjnIPDWgsCj-32" connectable="0" vertex="1">
          <mxGeometry relative="1" as="geometry">
            <mxPoint x="-40" y="-10" as="offset" />
          </mxGeometry>
        </mxCell>
        <mxCell id="B6tf1ZhUQxjnIPDWgsCj-36" value="" style="endArrow=classic;html=1;rounded=0;snapToPoint=0;" parent="1" target="uIkM0Dpdz_mQOi9VMkWr-1" edge="1">
          <mxGeometry relative="1" as="geometry">
            <mxPoint x="550.5" y="750" as="sourcePoint" />
            <mxPoint x="210" y="750" as="targetPoint" />
          </mxGeometry>
        </mxCell>
        <mxCell id="B6tf1ZhUQxjnIPDWgsCj-37" value="Lock Model" style="edgeLabel;resizable=0;html=1;;align=center;verticalAlign=middle;fontSize=18;labelBackgroundColor=none;" parent="B6tf1ZhUQxjnIPDWgsCj-36" connectable="0" vertex="1">
          <mxGeometry relative="1" as="geometry">
            <mxPoint x="-110" y="-10" as="offset" />
          </mxGeometry>
        </mxCell>
        <mxCell id="B6tf1ZhUQxjnIPDWgsCj-38" value="" style="endArrow=classic;html=1;rounded=0;snapToPoint=0;" parent="1" edge="1">
          <mxGeometry relative="1" as="geometry">
            <mxPoint x="910" y="780" as="sourcePoint" />
            <mxPoint x="750" y="781" as="targetPoint" />
          </mxGeometry>
        </mxCell>
        <mxCell id="B6tf1ZhUQxjnIPDWgsCj-39" value="Model Transform" style="edgeLabel;resizable=0;html=1;;align=center;verticalAlign=middle;fontSize=18;labelBackgroundColor=none;" parent="B6tf1ZhUQxjnIPDWgsCj-38" connectable="0" vertex="1">
          <mxGeometry relative="1" as="geometry">
            <mxPoint y="-10" as="offset" />
          </mxGeometry>
        </mxCell>
        <mxCell id="B6tf1ZhUQxjnIPDWgsCj-40" value="" style="endArrow=classic;html=1;rounded=0;snapToPoint=0;" parent="1" target="uIkM0Dpdz_mQOi9VMkWr-31" edge="1">
          <mxGeometry relative="1" as="geometry">
            <mxPoint x="750.5" y="810" as="sourcePoint" />
            <mxPoint x="590" y="810" as="targetPoint" />
          </mxGeometry>
        </mxCell>
        <mxCell id="B6tf1ZhUQxjnIPDWgsCj-41" value="Model Update" style="edgeLabel;resizable=0;html=1;;align=center;verticalAlign=middle;fontSize=18;labelBackgroundColor=none;" parent="B6tf1ZhUQxjnIPDWgsCj-40" connectable="0" vertex="1">
          <mxGeometry relative="1" as="geometry">
            <mxPoint x="-29" y="-10" as="offset" />
          </mxGeometry>
        </mxCell>
        <mxCell id="B6tf1ZhUQxjnIPDWgsCj-42" value="" style="endArrow=classic;html=1;rounded=0;snapToPoint=0;" parent="1" target="uIkM0Dpdz_mQOi9VMkWr-1" edge="1">
          <mxGeometry relative="1" as="geometry">
            <mxPoint x="550.5" y="840" as="sourcePoint" />
            <mxPoint x="210" y="840" as="targetPoint" />
          </mxGeometry>
        </mxCell>
        <mxCell id="B6tf1ZhUQxjnIPDWgsCj-43" value="Update all Clients (Model)" style="edgeLabel;resizable=0;html=1;;align=center;verticalAlign=middle;fontSize=18;labelBackgroundColor=none;" parent="B6tf1ZhUQxjnIPDWgsCj-42" connectable="0" vertex="1">
          <mxGeometry relative="1" as="geometry">
            <mxPoint x="-60" y="-10" as="offset" />
          </mxGeometry>
        </mxCell>
      </root>
    </mxGraphModel>
  </diagram>
</mxfile>
